REM DIRINDEX 1\2\3,1\2\4,1\2\5,1\2\6
REM DIRNAME folder01,folder02,folder03,folder04,folder05,folder06
TITLE ""
FILE "050 050.mp3" MP3
  TRACK 01 AUDIO
    TITLE "0:"
    INDEX 01 00:00:00
  TRACK 02 AUDIO
    TITLE "3:cjc157_1900"
    INDEX 01 00:00:11
  TRACK 03 AUDIO
    TITLE "0:"
    INDEX 01 00:01:34
  TRACK 04 AUDIO
    TITLE "4:cjc157_1901"
    INDEX 01 00:02:04
  TRACK 05 AUDIO
    TITLE "0:"
    INDEX 01 00:03:27
  TRACK 06 AUDIO
    TITLE "5:cjc157_1902"
    INDEX 01 00:03:72
  TRACK 07 AUDIO
    TITLE "0:"
    INDEX 01 00:08:38
  TRACK 08 AUDIO
    TITLE "5:cjc157_1903"
    INDEX 01 00:09:08
  TRACK 09 AUDIO
    TITLE "0:"
    INDEX 01 00:12:34
  TRACK 10 AUDIO
    TITLE "3:cjc157_1904"
    INDEX 01 00:13:02
  TRACK 11 AUDIO
    TITLE "0:"
    INDEX 01 00:14:19
  TRACK 12 AUDIO
    TITLE "4:cjc157_1905"
    INDEX 01 00:14:64
  TRACK 13 AUDIO
    TITLE "0:"
    INDEX 01 00:16:20
  TRACK 14 AUDIO
    TITLE "5:cjc157_1906"
    INDEX 01 00:16:67
  TRACK 15 AUDIO
    TITLE "0:"
    INDEX 01 00:20:24
  TRACK 16 AUDIO
    TITLE "3:cjc157_1907"
    INDEX 01 00:20:69
  TRACK 17 AUDIO
    TITLE "0:"
    INDEX 01 00:22:42
  TRACK 18 AUDIO
    TITLE "4:cjc157_1908"
    INDEX 01 00:23:12
  TRACK 19 AUDIO
    TITLE "0:"
    INDEX 01 00:24:37
  TRACK 20 AUDIO
    TITLE "5:cjc157_1909"
    INDEX 01 00:25:07
  TRACK 21 AUDIO
    TITLE "0:"
    INDEX 01 00:28:15
  TRACK 22 AUDIO
    TITLE "5:cjc157_1910"
    INDEX 01 00:28:60
  TRACK 23 AUDIO
    TITLE "0:"
    INDEX 01 00:32:21
  TRACK 24 AUDIO
    TITLE "3:cjc157_1911"
    INDEX 01 00:32:64
  TRACK 25 AUDIO
    TITLE "0:"
    INDEX 01 00:33:71
  TRACK 26 AUDIO
    TITLE "4:cjc157_1912"
    INDEX 01 00:34:43
  TRACK 27 AUDIO
    TITLE "0:"
    INDEX 01 00:35:68
  TRACK 28 AUDIO
    TITLE "5:cjc157_1913"
    INDEX 01 00:36:36
  TRACK 29 AUDIO
    TITLE "0:"
    INDEX 01 00:39:70
  TRACK 30 AUDIO
    TITLE "5:cjc157_1914"
    INDEX 01 00:40:36
  TRACK 31 AUDIO
    TITLE "0:"
    INDEX 01 00:43:05
  TRACK 32 AUDIO
    TITLE "3:cjc157_1915"
    INDEX 01 00:43:48
  TRACK 33 AUDIO
    TITLE "0:"
    INDEX 01 00:45:06
  TRACK 34 AUDIO
    TITLE "4:cjc157_1916"
    INDEX 01 00:45:53
  TRACK 35 AUDIO
    TITLE "0:"
    INDEX 01 00:47:01
  TRACK 36 AUDIO
    TITLE "5:cjc157_1917"
    INDEX 01 00:47:46
  TRACK 37 AUDIO
    TITLE "0:"
    INDEX 01 00:50:11
  TRACK 38 AUDIO
    TITLE "5:cjc157_1918"
    INDEX 01 00:50:62
  TRACK 39 AUDIO
    TITLE "0:"
    INDEX 01 00:54:27
  TRACK 40 AUDIO
    TITLE "3:cjc157_1919"
    INDEX 01 00:54:70
  TRACK 41 AUDIO
    TITLE "0:"
    INDEX 01 00:56:27
  TRACK 42 AUDIO
    TITLE "4:cjc157_1920"
    INDEX 01 00:56:71
  TRACK 43 AUDIO
    TITLE "0:"
    INDEX 01 00:58:11
  TRACK 44 AUDIO
    TITLE "5:cjc157_1921"
    INDEX 01 00:58:52
  TRACK 45 AUDIO
    TITLE "0:"
    INDEX 01 01:02:16
  TRACK 46 AUDIO
    TITLE "5:cjc157_1922"
    INDEX 01 01:02:61
  TRACK 47 AUDIO
    TITLE "0:"
    INDEX 01 01:04:31
  TRACK 48 AUDIO
    TITLE "3:cjc157_1923"
    INDEX 01 01:04:74
  TRACK 49 AUDIO
    TITLE "0:"
    INDEX 01 01:06:30
  TRACK 50 AUDIO
    TITLE "4:cjc157_1924"
    INDEX 01 01:07:06
  TRACK 51 AUDIO
    TITLE "0:"
    INDEX 01 01:08:19
  TRACK 52 AUDIO
    TITLE "5:cjc157_1925"
    INDEX 01 01:08:66
  TRACK 53 AUDIO
    TITLE "0:"
    INDEX 01 01:11:05
  TRACK 54 AUDIO
    TITLE "5:cjc157_1926"
    INDEX 01 01:11:52
  TRACK 55 AUDIO
    TITLE "0:"
    INDEX 01 01:14:29
  TRACK 56 AUDIO
    TITLE "3:cjc157_1927"
    INDEX 01 01:14:74
  TRACK 57 AUDIO
    TITLE "0:"
    INDEX 01 01:16:38
  TRACK 58 AUDIO
    TITLE "4:cjc157_1928"
    INDEX 01 01:17:14
  TRACK 59 AUDIO
    TITLE "0:"
    INDEX 01 01:18:25
  TRACK 60 AUDIO
    TITLE "5:cjc157_1929"
    INDEX 01 01:19:01
  TRACK 61 AUDIO
    TITLE "0:"
    INDEX 01 01:21:53
  TRACK 62 AUDIO
    TITLE "5:cjc157_1930"
    INDEX 01 01:22:21
  TRACK 63 AUDIO
    TITLE "0:"
    INDEX 01 01:25:49
  TRACK 64 AUDIO
    TITLE "3:cjc157_1931"
    INDEX 01 01:26:25
  TRACK 65 AUDIO
    TITLE "0:"
    INDEX 01 01:27:71
  TRACK 66 AUDIO
    TITLE "4:cjc157_1932"
    INDEX 01 01:28:37
  TRACK 67 AUDIO
    TITLE "0:"
    INDEX 01 01:31:36
  TRACK 68 AUDIO
    TITLE "5:cjc157_1933"
    INDEX 01 01:32:04
  TRACK 69 AUDIO
    TITLE "0:"
    INDEX 01 01:34:30
  TRACK 70 AUDIO
    TITLE "5:cjc157_1934"
    INDEX 01 01:35:00
  TRACK 71 AUDIO
    TITLE "0:"
    INDEX 01 01:38:26
  TRACK 72 AUDIO
    TITLE "5:cjc157_1935"
    INDEX 01 01:38:73
  TRACK 73 AUDIO
    TITLE "0:"
    INDEX 01 01:41:30
  TRACK 74 AUDIO
    TITLE "5:cjc157_1936"
    INDEX 01 01:42:00
  TRACK 75 AUDIO
    TITLE "0:"
    INDEX 01 01:44:09
  TRACK 76 AUDIO
    TITLE "3:cjc157_1937"
    INDEX 01 01:44:52
  TRACK 77 AUDIO
    TITLE "0:"
    INDEX 01 01:47:01
  TRACK 78 AUDIO
    TITLE "4:cjc157_1938"
    INDEX 01 01:47:46
  TRACK 79 AUDIO
    TITLE "0:"
    INDEX 01 01:48:71
  TRACK 80 AUDIO
    TITLE "5:cjc157_1939"
    INDEX 01 01:49:41
  TRACK 81 AUDIO
    TITLE "0:"
    INDEX 01 01:52:48
